<svg width="1105" height="261" viewBox="0 0 1105 261" fill="none" xmlns="http://www.w3.org/2000/svg">
<path d="M44.8018 2.80005C23.0684 10.2667 6.13512 29.3334 1.46845 51.7334C-0.398216 60.9334 -0.531549 198 1.33512 208.133C3.73512 220.4 9.73512 231.333 19.6018 241.2C29.0684 250.4 36.9351 255.067 48.4018 258.133C57.4684 260.533 210.535 260.8 221.602 258.533C242.268 254.133 260.268 238 268.268 216.533C271.202 208.8 271.202 207.333 271.735 135.333C272.002 84.1334 271.735 59.3334 270.668 52.9334C266.668 29.7334 249.468 9.8667 226.935 2.40002C220.135 0.133362 213.202 3.05176e-05 136.135 3.05176e-05C55.8684 0.133362 52.4018 0.133392 44.8018 2.80005ZM224.935 27.6C231.868 31.3334 239.335 38.9334 243.202 46C246.002 51.2 246.002 52.5334 246.402 128L246.753 195.172C246.785 201.329 245.387 207.409 242.668 212.933C237.735 222.8 230.402 229.6 220.268 233.333C213.202 236 210.668 236.133 133.468 235.733L61.6958 235.372C56.6416 235.347 51.6687 234.098 47.2018 231.733C39.2018 227.467 31.6018 219.467 27.6018 210.933C24.6684 204.667 24.6684 203.867 24.6684 131.333C24.6684 64.1334 24.8018 57.4667 27.0684 51.0667C31.2018 39.4667 42.1351 29.0667 54.6684 25.2C56.5351 24.6667 94.2684 24.2667 138.668 24.4L213.013 24.6458C217.167 24.6595 221.256 25.6728 224.935 27.6Z" fill="#667EEA"/>
<path d="M99.3346 51.2C90.5346 54 85.868 56.9333 80.4013 63.2C73.868 70.6666 70.668 80.1333 70.668 92.1333C70.668 109.6 78.668 123.2 93.068 130.267C100.668 134 100.801 134 134.935 134.667C166.801 135.333 169.335 135.467 172.935 138.133C183.868 146.133 184.135 163.467 173.468 172.4C170.623 174.728 167.059 176 163.383 176H117.868H78.8013C72.1003 176 66.668 181.432 66.668 188.133C66.668 194.746 72.0551 200.093 78.6676 200.043L119.735 199.733C179.735 199.2 180.135 199.067 191.868 188.533C201.601 179.733 204.668 171.867 204.668 155.333C204.668 144.267 204.135 140.933 201.601 135.333C197.735 126.933 191.868 120.667 183.335 116.267C176.668 112.667 176.268 112.667 142.001 112C111.735 111.467 106.801 111.067 103.601 108.933C92.8013 101.867 91.7346 85.8666 101.468 76.5333C104.036 74.0511 107.46 72.6517 111.031 72.6249L158.801 72.2666L200.802 71.9508C207.001 71.9042 212.001 66.8658 212.001 60.6666C212.001 54.412 206.923 49.3459 200.668 49.3615L158.401 49.4666C118.935 49.4666 103.201 50 99.3346 51.2Z" fill="#667EEA"/>
<path d="M392.556 98.8506C391.926 92.9581 389.273 88.37 384.595 85.0864C379.962 81.8028 373.934 80.161 366.512 80.161C361.294 80.161 356.819 80.9481 353.085 82.5225C349.352 84.0968 346.496 86.2334 344.516 88.9323C342.537 91.6311 341.525 94.7123 341.48 98.1759C341.48 101.055 342.132 103.551 343.437 105.665C344.786 107.779 346.608 109.579 348.902 111.063C351.196 112.502 353.738 113.717 356.526 114.706C359.315 115.696 362.127 116.528 364.96 117.203L377.915 120.441C383.133 121.656 388.148 123.298 392.961 125.367C397.819 127.436 402.16 130.045 405.983 133.194C409.851 136.342 412.91 140.143 415.159 144.596C417.408 149.049 418.533 154.267 418.533 160.25C418.533 168.346 416.464 175.476 412.325 181.638C408.187 187.756 402.205 192.546 394.378 196.01C386.596 199.428 377.173 201.138 366.107 201.138C355.357 201.138 346.023 199.473 338.107 196.145C330.235 192.816 324.073 187.958 319.619 181.571C315.211 175.183 312.827 167.402 312.467 158.226H337.095C337.454 163.039 338.939 167.042 341.548 170.236C344.157 173.429 347.553 175.813 351.736 177.388C355.964 178.962 360.687 179.749 365.905 179.749C371.348 179.749 376.116 178.939 380.209 177.32C384.347 175.656 387.586 173.362 389.925 170.438C392.264 167.469 393.456 164.006 393.501 160.047C393.456 156.449 392.399 153.48 390.33 151.141C388.261 148.757 385.359 146.778 381.626 145.204C377.937 143.584 373.619 142.145 368.671 140.885L352.95 136.837C341.57 133.913 332.574 129.483 325.962 123.545C319.395 117.563 316.111 109.624 316.111 99.7277C316.111 91.5861 318.315 84.4566 322.723 78.3392C327.176 72.2218 333.226 67.4763 340.873 64.1027C348.52 60.6842 357.179 58.9749 366.85 58.9749C376.655 58.9749 385.247 60.6842 392.624 64.1027C400.046 67.4763 405.871 72.1768 410.099 78.2043C414.327 84.1868 416.509 91.0689 416.644 98.8506H392.556ZM464.194 138.321V199.046H439.769V60.8641H463.654V113.02H464.869C467.298 107.172 471.054 102.562 476.137 99.1879C481.264 95.7694 487.787 94.0601 495.703 94.0601C502.9 94.0601 509.175 95.567 514.528 98.5807C519.881 101.594 524.019 106.003 526.943 111.805C529.911 117.608 531.396 124.692 531.396 133.059V199.046H506.971V136.837C506.971 129.865 505.172 124.445 501.573 120.576C498.02 116.663 493.027 114.706 486.595 114.706C482.277 114.706 478.408 115.651 474.99 117.54C471.616 119.384 468.962 122.061 467.028 125.569C465.139 129.078 464.194 133.329 464.194 138.321ZM556.293 199.046V95.4095H580.718V199.046H556.293ZM568.573 80.7007C564.704 80.7007 561.376 79.4188 558.587 76.8548C555.798 74.2459 554.404 71.1198 554.404 67.4763C554.404 63.7878 555.798 60.6617 558.587 58.0977C561.376 55.4888 564.704 54.1844 568.573 54.1844C572.486 54.1844 575.815 55.4888 578.559 58.0977C581.347 60.6617 582.742 63.7878 582.742 67.4763C582.742 71.1198 581.347 74.2459 578.559 76.8548C575.815 79.4188 572.486 80.7007 568.573 80.7007ZM630.259 138.321V199.046H605.834V95.4095H629.179V113.02H630.394C632.778 107.217 636.578 102.607 641.796 99.1879C647.059 95.7694 653.559 94.0601 661.296 94.0601C668.448 94.0601 674.677 95.5895 679.985 98.6482C685.338 101.707 689.476 106.138 692.4 111.94C695.369 117.743 696.831 124.782 696.786 133.059V199.046H672.361V136.837C672.361 129.91 670.562 124.49 666.963 120.576C663.41 116.663 658.484 114.706 652.187 114.706C647.914 114.706 644.113 115.651 640.784 117.54C637.501 119.384 634.914 122.061 633.025 125.569C631.181 129.078 630.259 133.329 630.259 138.321ZM742.127 199.046L703.128 60.8641H730.049L754.946 162.409H756.228L782.812 60.8641H807.304L833.955 162.476H835.17L860.067 60.8641H886.988L847.989 199.046H823.295L795.631 102.089H794.552L766.821 199.046H742.127ZM938.57 201.07C928.179 201.07 919.206 198.911 911.649 194.593C904.137 190.23 898.357 184.067 894.309 176.106C890.26 168.099 888.236 158.675 888.236 147.835C888.236 137.174 890.26 127.818 894.309 119.767C898.402 111.67 904.115 105.373 911.446 100.875C918.778 96.3316 927.392 94.0601 937.288 94.0601C943.675 94.0601 949.703 95.0947 955.37 97.1638C961.083 99.1879 966.121 102.337 970.484 106.61C974.892 110.883 978.356 116.326 980.875 122.938C983.394 129.505 984.653 137.332 984.653 146.418V153.907H899.706V137.444H961.241C961.196 132.766 960.183 128.606 958.204 124.962C956.225 121.274 953.459 118.372 949.905 116.258C946.397 114.144 942.303 113.087 937.625 113.087C932.633 113.087 928.247 114.302 924.468 116.731C920.69 119.115 917.744 122.263 915.63 126.177C913.561 130.045 912.504 134.296 912.459 138.929V153.3C912.459 159.328 913.561 164.5 915.765 168.819C917.969 173.092 921.05 176.375 925.008 178.669C928.967 180.919 933.6 182.043 938.907 182.043C942.461 182.043 945.677 181.548 948.556 180.559C951.435 179.524 953.931 178.017 956.045 176.038C958.159 174.059 959.756 171.607 960.836 168.684L983.641 171.248C982.202 177.275 979.458 182.538 975.41 187.036C971.406 191.489 966.278 194.953 960.026 197.427C953.774 199.856 946.622 201.07 938.57 201.07ZM1006.4 199.046V60.8641H1030.82V112.547H1031.83C1033.09 110.028 1034.87 107.352 1037.16 104.518C1039.46 101.639 1042.56 99.1879 1046.47 97.1638C1050.39 95.0947 1055.38 94.0601 1061.45 94.0601C1069.46 94.0601 1076.68 96.1067 1083.11 100.2C1089.59 104.248 1094.72 110.253 1098.49 118.215C1102.32 126.132 1104.23 135.848 1104.23 147.363C1104.23 158.743 1102.36 168.414 1098.63 176.375C1094.9 184.337 1089.81 190.41 1083.38 194.593C1076.95 198.776 1069.66 200.868 1061.52 200.868C1055.58 200.868 1050.66 199.878 1046.74 197.899C1042.83 195.92 1039.68 193.536 1037.3 190.747C1034.96 187.913 1033.14 185.237 1031.83 182.718H1030.42V199.046H1006.4ZM1030.35 147.228C1030.35 153.93 1031.29 159.8 1033.18 164.838C1035.12 169.876 1037.88 173.812 1041.48 176.645C1045.12 179.434 1049.53 180.829 1054.71 180.829C1060.1 180.829 1064.62 179.389 1068.27 176.51C1071.91 173.587 1074.65 169.606 1076.5 164.568C1078.39 159.485 1079.33 153.705 1079.33 147.228C1079.33 140.795 1078.41 135.083 1076.57 130.09C1074.72 125.097 1071.98 121.184 1068.33 118.35C1064.69 115.516 1060.15 114.099 1054.71 114.099C1049.49 114.099 1045.06 115.471 1041.41 118.215C1037.77 120.959 1035 124.805 1033.11 129.753C1031.27 134.7 1030.35 140.526 1030.35 147.228Z" fill="#667EEA"/>
</svg>
